<svg viewBox="0 0 678 135" version="1.1" xmlns="http://www.w3.org/2000/svg">
            <path class="c-header_logo_main" d="M37.40625,110.953125 C42.609375,110.953125 46.3359375,110.53125 49.078125,110.039062 L49.078125,92.3203125 C47.671875,92.53125 46.40625,92.671875 44.4375,92.671875 C38.3203125,92.671875 35.3671875,90.2109375 35.3671875,83.6015625 L35.3671875,51.046875 L49.078125,51.046875 L49.078125,32.765625 L35.3671875,32.765625 L35.3671875,15.1171875 L10.40625,15.1171875 L10.40625,32.765625 L0,32.765625 L0,51.046875 L10.40625,51.046875 L10.40625,86.9765625 C10.40625,104.273438 18.84375,110.953125 37.40625,110.953125 Z M83.4193255,24.5390625 C90.661513,24.5390625 96.145888,18.9140625 96.145888,12.234375 C96.145888,5.5546875 90.661513,0 83.4193255,0 C76.2474505,0 70.692763,5.5546875 70.692763,12.234375 C70.692763,18.9140625 76.2474505,24.5390625 83.4193255,24.5390625 Z M95.864638,109.335938 L95.864638,32.765625 L70.974013,32.765625 L70.974013,109.335938 L95.864638,109.335938 Z M150.596463,109.335938 L150.596463,51.046875 L164.799588,51.046875 L164.799588,32.765625 L149.893338,32.765625 L149.893338,29.4609375 C149.893338,25.03125 152.776151,22.4296875 159.666776,22.4296875 C161.565213,22.4296875 163.533963,22.5 164.940213,22.78125 L164.940213,7.3125 C162.198026,6.75 157.346463,6.2578125 152.987088,6.2578125 C132.948026,6.2578125 125.635526,13.21875 125.635526,28.3359375 L125.635526,32.765625 L115.440213,32.765625 L115.440213,51.046875 L125.635526,51.046875 L125.635526,109.335938 L150.596463,109.335938 Z M217.140789,109.335938 L217.140789,51.046875 L231.343914,51.046875 L231.343914,32.765625 L216.437664,32.765625 L216.437664,29.4609375 C216.437664,25.03125 219.320476,22.4296875 226.211101,22.4296875 C228.109539,22.4296875 230.078289,22.5 231.484539,22.78125 L231.484539,7.3125 C228.742351,6.75 223.890789,6.2578125 219.531414,6.2578125 C199.492351,6.2578125 192.179851,13.21875 192.179851,28.3359375 L192.179851,32.765625 L181.984539,32.765625 L181.984539,51.046875 L192.179851,51.046875 L192.179851,109.335938 L217.140789,109.335938 Z M271.802302,110.390625 C281.786677,110.390625 289.380427,106.03125 293.739802,98.5078125 L294.231989,98.5078125 L294.231989,109.335938 L319.122614,109.335938 L319.122614,57.09375 C319.122614,41.5546875 305.552302,31.1484375 284.950739,31.1484375 C263.646052,31.1484375 250.919489,41.34375 249.724177,56.25 L249.653864,57.1640625 L272.083552,57.1640625 L272.224177,56.4609375 C273.067927,52.5234375 277.005427,49.4296875 283.685114,49.4296875 C290.646052,49.4296875 294.231989,52.875 294.231989,58.4296875 L294.231989,62.2265625 L276.794489,63.3515625 C257.036677,64.6875 245.927302,72.7734375 245.927302,87.1875 L245.927302,87.2578125 C245.927302,100.617188 256.403864,110.390625 271.802302,110.390625 Z M280.521052,93.1640625 C274.403864,93.1640625 270.396052,90.421875 270.396052,85.640625 L270.396052,85.5703125 C270.396052,81 273.841364,78.1171875 280.802302,77.6953125 L294.231989,76.78125 L294.231989,81.9140625 C294.231989,88.3828125 288.536677,93.1640625 280.521052,93.1640625 Z M367.315378,109.335938 L367.315378,65.8828125 C367.315378,57.375 372.237253,51.46875 380.182565,51.46875 C388.338815,51.46875 392.487253,56.6015625 392.487253,65.390625 L392.487253,109.335938 L417.377878,109.335938 L417.377878,60.046875 C417.377878,41.90625 407.88569,31.1484375 391.081003,31.1484375 C379.47944,31.1484375 371.60444,36.6328125 367.807565,46.265625 L367.315378,46.265625 L367.315378,32.765625 L342.35444,32.765625 L342.35444,109.335938 L367.315378,109.335938 Z M454.180016,134.296875 C472.812828,134.296875 484.906578,128.8125 491.164391,108.984375 L515.562828,32.765625 L489.265953,32.765625 L475.625328,90.6328125 L474.992516,90.6328125 L461.281578,32.765625 L433.719078,32.765625 L460.086266,109.335938 L459.523766,110.953125 C458.258141,114.328125 455.375328,115.945312 450.101891,115.945312 C446.234703,115.945312 443.281578,115.523438 441.664391,115.171875 L441.664391,133.242188 C444.476891,133.734375 449.258141,134.296875 454.180016,134.296875 Z M548.497778,49.1484375 L558.833716,7.875 L535.911841,7.875 L531.411841,49.1484375 L548.497778,49.1484375 Z M605.479604,110.953125 C626.503041,110.953125 640.846791,100.898438 640.846791,85.078125 L640.846791,85.0078125 C640.846791,73.546875 633.815541,67.21875 617.573354,63.984375 L604.073354,61.3125 C596.831166,59.8359375 594.510854,57.8671875 594.510854,54.5625 L594.510854,54.4921875 C594.510854,50.484375 598.448354,47.953125 604.565541,47.953125 C611.456166,47.953125 615.323354,51.6796875 615.885854,56.1796875 L615.956166,56.7421875 L638.737416,56.7421875 L638.667104,56.1796875 C638.456166,42.46875 626.713979,31.1484375 604.565541,31.1484375 C583.612416,31.1484375 570.534291,40.640625 570.534291,55.8984375 L570.534291,55.96875 C570.534291,67.640625 578.338979,75.4453125 593.315541,78.328125 L606.815541,81 C613.635854,82.40625 616.096791,84.3046875 616.096791,87.75 L616.096791,87.8203125 C616.096791,91.7578125 612.088979,94.1484375 605.479604,94.1484375 C598.167104,94.1484375 594.229604,91.125 593.034291,85.921875 L592.893666,85.359375 L568.706166,85.359375 L568.776479,85.9921875 C570.463979,100.898438 582.698354,110.953125 605.479604,110.953125 Z" id="tiffany’s"></path>
            <path data-headerlogo="dot" class="c-header_logo_dot" d="M665.008305,86.3359375 C671.547356,86.3359375 676.848305,91.6368861 676.848305,98.1759375 C676.848305,104.714989 671.547356,110.015937 665.008305,110.015937 C658.469253,110.015937 653.168305,104.714989 653.168305,98.1759375 C653.254449,91.6729024 658.505269,86.4220817 665.008305,86.3359375" id="Path"></path>
        
</svg>